<svg width="401" height="401" viewBox="0 0 401 401" fill="none" xmlns="http://www.w3.org/2000/svg">
<circle cx="200.5" cy="200.5" r="200.5" fill="#232830"/>
<path d="M137.95 299.467C124.913 299.461 116.371 290.331 112.91 282.345C110.955 278.356 103.196 261.598 103.196 247.047C103.196 232.848 111.613 219.366 124.115 212.279V210.137C124.115 201.846 130.909 195.1 139.26 195.1H148.579C144.519 182.126 140.014 155.667 159.949 132.877C162.844 129.581 167.008 127.702 171.39 127.702C171.422 127.702 171.454 127.702 171.488 127.702C182.718 112.78 205.352 93.2161 246.8 93.2161C260.105 93.2161 274.609 95.2787 289.907 99.3473C294.713 100.633 298.575 104.168 300.25 108.811C301.922 113.483 301.185 118.649 298.281 122.655C297.173 124.182 296.115 125.723 295.073 127.238L294.859 127.548C291.223 132.846 287.452 138.335 282.3 143.089C278.878 146.247 274.193 149.703 268.739 152.667C268.77 156.546 267.282 160.341 264.465 163.231C239.514 188.77 217.66 201.399 200.66 207.444C200.819 208.318 200.904 209.218 200.904 210.137V212.279C213.403 219.363 221.822 232.848 221.822 247.047C221.822 261.575 214.061 278.354 212.11 282.343C208.654 290.32 200.123 299.447 187.114 299.467H137.95Z" fill="#F2F2F2"/>
<path d="M236.758 144.014C250.349 146.667 265.119 138.044 272.091 131.731C277.421 126.906 281.369 120.265 286.161 113.776C194.799 89.9132 175.292 150.171 175.292 150.171C175.292 150.171 172.459 151.862 170.98 142.248C149.916 165.882 164.943 195.555 164.943 195.555C164.943 195.555 200.167 205.826 253.596 152.146C244.74 150.854 241.406 148.78 236.758 144.014Z" fill="#FF7575" stroke="#232830" stroke-width="4" stroke-miterlimit="10" stroke-linecap="round" stroke-linejoin="round"/>
<path d="M185.445 222.143V209.649C185.445 209.649 185.445 209.648 185.445 209.648H139.042V222.143C127.2 224.344 118.166 235.574 118.166 246.834C118.166 259.389 126.516 276.136 126.516 276.136C126.516 276.136 129.646 284.493 137.732 284.497C151.218 284.497 173.287 284.497 186.773 284.497C194.845 284.483 197.971 276.136 197.971 276.136C197.971 276.136 206.322 259.389 206.322 246.834C206.322 235.574 197.287 224.344 185.445 222.143Z" fill="#9AA2E6" stroke="#232830" stroke-width="4" stroke-miterlimit="10" stroke-linecap="round" stroke-linejoin="round"/>
<path d="M239.588 128.146C186.675 147.251 159.755 194.237 156.422 244.578" stroke="#232830" stroke-width="4" stroke-miterlimit="10" stroke-linecap="round" stroke-linejoin="round"/>
<path d="M195.259 239.588H130.892C129.163 242.149 128.146 245.012 128.146 247.72C128.146 256.152 133.783 268.505 135.957 272.55L136.162 272.932L136.319 273.331C136.324 273.331 137.673 276.181 139.878 276.181H186.269C188.461 276.181 189.818 273.363 189.827 273.331L189.984 272.932L190.19 272.55C192.364 268.492 198.005 256.1 198.005 247.72C198.005 245.012 196.988 242.149 195.259 239.588Z" fill="#707CC0"/>
</svg>
